<svg width="140" height="24" viewBox="0 0 140 24" fill="none" xmlns="http://www.w3.org/2000/svg">
<g clip-path="url(#clip0_15_391)">
<path d="M11.9119 2.66555C11.237 2.7617 10.561 3.09266 10.0719 3.62962C9.58289 3.09266 8.90688 2.7617 8.23204 2.66555C7.3755 2.54352 6.44069 2.79228 5.86232 3.58677C5.11393 4.6148 5.11393 6.07083 5.86232 7.09887L8.35063 10.517C9.23041 11.7255 10.9135 11.7255 11.7933 10.517L14.2816 7.09887C15.03 6.07084 15.03 4.6148 14.2816 3.58677C13.7032 2.79228 12.7684 2.54352 11.9119 2.66555Z" fill="#A8DF09"/>
</g>
<g clip-path="url(#clip1_15_391)">
<path d="M8.23207 22.378C8.90691 22.2818 9.58292 21.9509 10.072 21.4139C10.561 21.9509 11.237 22.2818 11.9119 22.378C12.7684 22.5 13.7032 22.2512 14.2816 21.4568C15.03 20.4287 15.03 18.9727 14.2816 17.9446L11.7933 14.5266C10.9135 13.318 9.23045 13.318 8.35066 14.5266L5.86235 17.9446C5.11396 18.9727 5.11396 20.4287 5.86235 21.4568C6.44072 22.2512 7.37553 22.5 8.23207 22.378Z" fill="#A8DF09"/>
</g>
<path d="M19.5854 14.428C19.4926 13.7288 19.1732 13.0284 18.6549 12.5218C19.1732 12.0151 19.4926 11.3147 19.5854 10.6156C19.7032 9.72819 19.4631 8.7597 18.6963 8.16049C17.704 7.38514 16.2986 7.38514 15.3063 8.16049L12.007 10.7384C10.8405 11.6499 10.8405 13.3936 12.007 14.3051L15.3063 16.883C16.2986 17.6584 17.704 17.6584 18.6963 16.883C19.4631 16.2838 19.7032 15.3154 19.5854 14.428Z" fill="#A8DF09"/>
<g clip-path="url(#clip2_15_391)">
<path d="M0.558453 10.6156C0.651252 11.3148 0.970712 12.0151 1.489 12.5218C0.970712 13.0285 0.651252 13.7288 0.558452 14.428C0.440667 15.3154 0.68077 16.2839 1.44763 16.8831C2.43992 17.6584 3.84532 17.6584 4.83761 16.8831L8.13685 14.3051C9.30335 13.3937 9.30335 11.65 8.13685 10.7385L4.83761 8.16053C3.84533 7.38518 2.43992 7.38518 1.44763 8.16053C0.680771 8.75974 0.440668 9.72822 0.558453 10.6156Z" fill="#A8DF09"/>
</g>
<path d="M33.0188 8.29133C32.933 7.28994 32.1891 6.68911 30.8635 6.68911C29.5474 6.68911 28.8702 7.26133 28.8607 8.04337C28.8416 8.9017 29.6809 9.32133 30.9207 9.58836L32.1224 9.87447C34.7832 10.4562 36.3282 11.7819 36.3377 13.9945C36.3282 16.6076 34.2968 18.1812 30.8635 18.1907C27.4206 18.1812 25.1985 16.6362 25.1413 13.4604H28.2694C28.3457 14.7956 29.3471 15.4822 30.8253 15.4822C32.1987 15.4822 33.0188 14.8814 33.0379 13.9945C33.0188 13.1933 32.3131 12.7737 30.7872 12.4304L29.3376 12.0871C26.9628 11.5339 25.5037 10.3513 25.5037 8.27226C25.4941 5.7068 27.7544 3.99968 30.8826 3.99968C34.0679 3.99968 36.1184 5.73541 36.147 8.29133H33.0188ZM41.2207 4.19042V18H37.9972V4.19042H41.2207ZM48.0873 18.1907C44.8543 18.1907 42.8801 16.0449 42.8801 12.85C42.8801 9.65512 44.8543 7.50929 48.0873 7.50929C51.3299 7.50929 53.2945 9.65512 53.2945 12.85C53.2945 16.0449 51.3299 18.1907 48.0873 18.1907ZM46.1608 12.8309C46.1513 14.5667 46.838 15.7588 48.1064 15.7683C49.3367 15.7588 50.0233 14.5667 50.0138 12.8309C50.0233 11.1047 49.3367 9.90308 48.1064 9.89355C46.838 9.90308 46.1513 11.1047 46.1608 12.8309ZM56.6897 18L53.9621 7.64281H57.1856L58.6352 14.3378H58.7115L60.2565 7.64281H63.4037L64.9869 14.2996H65.0632L66.4556 7.64281H69.6982L66.9706 18H63.5373L61.8969 11.8582H61.7634L60.123 18H56.6897ZM78.3768 4.19042L81.5241 14.3759H81.6385L84.7857 4.19042H88.4098L83.7366 18H79.4259L74.7337 4.19042H78.3768ZM89.8594 18V7.64281H93.0829V18H89.8594ZM89.8212 4.85801C89.8212 3.99968 90.5651 3.30348 91.4807 3.31301C92.4058 3.30348 93.1497 3.99968 93.1592 4.85801C93.1497 5.71634 92.4058 6.403 91.4807 6.403C90.5651 6.403 89.8212 5.71634 89.8212 4.85801ZM98.3664 4.19042V18H95.1429V4.19042H98.3664ZM103.65 4.19042V18H100.426V4.19042H103.65ZM105.233 15.1198C105.224 12.8214 107.007 12.0012 109.067 11.8772C109.82 11.8296 111.108 11.7819 111.547 11.7628V10.9235C111.547 10.1987 111.012 9.78864 110.135 9.79818C109.286 9.78864 108.733 10.1701 108.609 10.8472H105.615C105.758 9.01614 107.303 7.50929 110.211 7.50929C112.767 7.50929 114.761 8.72049 114.77 10.9617V18H111.737V16.5504H111.661C111.098 17.5994 110.097 18.1812 108.647 18.1907C106.664 18.1812 105.224 17.1703 105.233 15.1198ZM108.285 14.9863C108.275 15.6825 108.838 16.0545 109.62 16.0545C110.717 16.0545 111.575 15.3392 111.566 14.3187V13.6511C111.175 13.6607 110.087 13.7179 109.601 13.7656C108.79 13.8514 108.275 14.2996 108.285 14.9863ZM121.541 22.1009C118.566 22.1009 116.782 20.7562 116.639 18.782H119.767C119.901 19.5355 120.616 19.8597 121.618 19.8502C122.781 19.8597 123.582 19.3638 123.582 18.0191V16.188H123.468C123.077 17.1226 122.075 17.8569 120.53 17.8665C118.242 17.8569 116.372 16.2929 116.372 12.7928C116.372 9.16873 118.327 7.50929 120.511 7.50929C122.171 7.50929 123.058 8.48207 123.449 9.4167H123.544V7.64281H126.749V18.0572C126.749 20.6894 124.631 22.1009 121.541 22.1009ZM119.672 12.7928C119.672 14.4904 120.368 15.5013 121.618 15.5013C122.867 15.5013 123.592 14.4999 123.582 12.7928C123.592 11.0952 122.867 10.0271 121.618 10.0271C120.359 10.0271 119.672 11.1238 119.672 12.7928ZM133.634 18.1907C130.392 18.1907 128.408 16.1689 128.408 12.8691C128.408 9.65512 130.411 7.50929 133.52 7.50929C136.429 7.50929 138.517 9.35947 138.517 12.7928V13.613H131.574V13.6702C131.584 14.9958 132.385 15.8637 133.691 15.8637C134.569 15.8637 135.227 15.4822 135.484 14.8719H138.479C138.088 16.8937 136.314 18.1907 133.634 18.1907ZM131.574 11.7247H135.523C135.504 10.6184 134.702 9.83632 133.596 9.83632C132.461 9.83632 131.622 10.6565 131.574 11.7247Z" fill="#515151"/>
<defs>
<clipPath id="clip0_15_391">
<rect width="12.7225" height="13.1808" fill="white" transform="translate(3.71072 2.08698)"/>
</clipPath>
<clipPath id="clip1_15_391">
<rect width="12.7225" height="13.1808" fill="white" transform="translate(16.4332 22.9565) rotate(-180)"/>
</clipPath>
<clipPath id="clip2_15_391">
<rect width="13.1808" height="12.7225" fill="white" transform="translate(0 19.1122) rotate(-90)"/>
</clipPath>
</defs>
</svg>
