<svg width="23" height="23" viewBox="0 0 23 23" fill="none" xmlns="http://www.w3.org/2000/svg">
<path d="M8.31055 11.2126C9.05016 12.74 10.2852 13.9719 11.8145 14.7075C11.9273 14.761 12.052 14.7841 12.1765 14.7746C12.3009 14.7652 12.4208 14.7235 12.5242 14.6536L14.7703 13.1532C14.8695 13.0859 14.9842 13.0449 15.1036 13.0339C15.223 13.0229 15.3433 13.0423 15.4531 13.0904L19.6578 14.8962C19.8015 14.956 19.9216 15.0614 19.9995 15.1962C20.0774 15.3309 20.1089 15.4875 20.0891 15.6419C19.9558 16.6821 19.4481 17.638 18.6609 18.3309C17.8738 19.0238 16.8612 19.4061 15.8125 19.4064C12.5719 19.4064 9.464 18.119 7.17254 15.8276C4.88108 13.5361 3.59375 10.4282 3.59375 7.18762C3.59399 6.13896 3.97632 5.12632 4.6692 4.33918C5.36209 3.55203 6.31805 3.04433 7.3582 2.91106C7.51259 2.89123 7.66921 2.9227 7.80396 3.00062C7.9387 3.07855 8.04409 3.1986 8.10391 3.34231L9.90977 7.55598C9.95673 7.6641 9.97637 7.78212 9.96697 7.89963C9.95757 8.01713 9.91941 8.13053 9.85586 8.22981L8.35547 10.5118C8.28867 10.6151 8.24947 10.7337 8.2416 10.8564C8.23374 10.9791 8.25747 11.1017 8.31055 11.2126V11.2126Z" stroke="black" stroke-width="1.5" stroke-linecap="round" stroke-linejoin="round"/>
</svg>
